<mxfile host="app.diagrams.net" modified="2023-04-20T15:51:39.701Z" agent="Mozilla/5.0 (Windows NT 10.0; Win64; x64) AppleWebKit/537.36 (KHTML, like Gecko) Chrome/112.0.0.0 Safari/537.36" etag="y3NvWmVo3pIrcp-arTX5" version="21.1.8" type="device">
  <diagram name="Page-1" id="BFAfXD4COOUsBw89pPKr">
    <mxGraphModel dx="2074" dy="1158" grid="1" gridSize="10" guides="1" tooltips="1" connect="1" arrows="1" fold="1" page="1" pageScale="1" pageWidth="850" pageHeight="1100" math="0" shadow="0">
      <root>
        <mxCell id="0" />
        <mxCell id="1" parent="0" />
        <mxCell id="M3oFYjEH38Rrcv15kbG6-4" value="" style="endArrow=classic;html=1;rounded=0;entryX=1.017;entryY=0.329;entryDx=0;entryDy=0;entryPerimeter=0;fontColor=#0000FF;strokeColor=#0000FF;" edge="1" parent="1" target="-7jV0sOdFc6A--xh77ND-5">
          <mxGeometry width="50" height="50" relative="1" as="geometry">
            <mxPoint x="710" y="380" as="sourcePoint" />
            <mxPoint x="550" y="380" as="targetPoint" />
          </mxGeometry>
        </mxCell>
        <mxCell id="JzKawUKtdEdiUEbR5uT6-11" value="" style="rounded=1;whiteSpace=wrap;html=1;strokeColor=#0000FF;" parent="1" vertex="1">
          <mxGeometry x="390" y="50" width="120" height="540" as="geometry" />
        </mxCell>
        <mxCell id="-7jV0sOdFc6A--xh77ND-2" value="PHOSP &lt;br&gt;COVID-19 patients&lt;br&gt;&lt;br&gt;Clinical data&lt;br&gt;Analytical data&amp;nbsp;" style="rounded=1;whiteSpace=wrap;html=1;fontColor=#000000;strokeColor=#006600;" parent="1" vertex="1">
          <mxGeometry x="600" y="450" width="120" height="150" as="geometry" />
        </mxCell>
        <mxCell id="-7jV0sOdFc6A--xh77ND-3" value="GenOMICC &lt;br&gt;COVID-19 patients&lt;br&gt;&lt;br&gt;Clinical data&lt;br&gt;Whole genome sequence data&amp;nbsp;&amp;nbsp;" style="rounded=1;whiteSpace=wrap;html=1;fontColor=#000000;strokeColor=#006600;" parent="1" vertex="1">
          <mxGeometry x="600" y="290" width="120" height="150" as="geometry" />
        </mxCell>
        <mxCell id="-7jV0sOdFc6A--xh77ND-4" value="ISARIC4C&amp;nbsp;&lt;br&gt;&lt;br&gt;&lt;br&gt;Clinical Data acquired through REDCap" style="rounded=1;whiteSpace=wrap;html=1;strokeColor=#0000FF;" parent="1" vertex="1">
          <mxGeometry x="390" y="50" width="120" height="230" as="geometry" />
        </mxCell>
        <mxCell id="-7jV0sOdFc6A--xh77ND-6" value="NHS England&amp;nbsp;&lt;br&gt;Routine health data&amp;nbsp;" style="rounded=1;whiteSpace=wrap;html=1;" parent="1" vertex="1">
          <mxGeometry x="150" y="50" width="120" height="540" as="geometry" />
        </mxCell>
        <mxCell id="-7jV0sOdFc6A--xh77ND-5" value="ISARIC4C&amp;nbsp;&lt;br style=&quot;border-color: var(--border-color);&quot;&gt;&lt;br style=&quot;border-color: var(--border-color);&quot;&gt;Clinical Data &lt;b&gt;not&lt;/b&gt; acquired through REDCap" style="rounded=1;whiteSpace=wrap;html=1;strokeColor=#0000FF;" parent="1" vertex="1">
          <mxGeometry x="390" y="280" width="120" height="310" as="geometry" />
        </mxCell>
        <mxCell id="M3oFYjEH38Rrcv15kbG6-5" value="" style="endArrow=classic;html=1;rounded=0;entryX=0.994;entryY=0.778;entryDx=0;entryDy=0;entryPerimeter=0;fontColor=#0000FF;strokeColor=#0000FF;" edge="1" parent="1" target="-7jV0sOdFc6A--xh77ND-5">
          <mxGeometry width="50" height="50" relative="1" as="geometry">
            <mxPoint x="600" y="521" as="sourcePoint" />
            <mxPoint x="550" y="380" as="targetPoint" />
          </mxGeometry>
        </mxCell>
        <mxCell id="M3oFYjEH38Rrcv15kbG6-6" value="" style="rounded=0;whiteSpace=wrap;html=1;" vertex="1" parent="1">
          <mxGeometry x="610" y="60" width="230" height="150" as="geometry" />
        </mxCell>
        <mxCell id="M3oFYjEH38Rrcv15kbG6-8" value="Key" style="text;html=1;strokeColor=none;fillColor=none;align=center;verticalAlign=middle;whiteSpace=wrap;rounded=0;fontStyle=1" vertex="1" parent="1">
          <mxGeometry x="620" y="70" width="60" height="30" as="geometry" />
        </mxCell>
        <mxCell id="M3oFYjEH38Rrcv15kbG6-11" value="Data collected under COPI notice - consent not required" style="text;html=1;strokeColor=none;fillColor=none;align=left;verticalAlign=middle;whiteSpace=wrap;rounded=0;" vertex="1" parent="1">
          <mxGeometry x="690" y="100" width="140" height="30" as="geometry" />
        </mxCell>
        <mxCell id="M3oFYjEH38Rrcv15kbG6-13" value="Data collected with informed consent" style="text;html=1;strokeColor=none;fillColor=none;align=left;verticalAlign=middle;whiteSpace=wrap;rounded=0;" vertex="1" parent="1">
          <mxGeometry x="691" y="150" width="140" height="30" as="geometry" />
        </mxCell>
        <mxCell id="M3oFYjEH38Rrcv15kbG6-14" value="" style="endArrow=classic;html=1;rounded=0;entryX=0.992;entryY=0.424;entryDx=0;entryDy=0;exitX=0;exitY=0;exitDx=0;exitDy=0;entryPerimeter=0;" edge="1" parent="1" source="-7jV0sOdFc6A--xh77ND-5" target="-7jV0sOdFc6A--xh77ND-6">
          <mxGeometry width="50" height="50" relative="1" as="geometry">
            <mxPoint x="620" y="340" as="sourcePoint" />
            <mxPoint x="570" y="390" as="targetPoint" />
          </mxGeometry>
        </mxCell>
        <mxCell id="M3oFYjEH38Rrcv15kbG6-16" value="ISARIC IDs&lt;br&gt;NHS numbers" style="text;html=1;strokeColor=none;fillColor=none;align=center;verticalAlign=middle;whiteSpace=wrap;rounded=0;" vertex="1" parent="1">
          <mxGeometry x="290" y="240" width="80" height="30" as="geometry" />
        </mxCell>
        <mxCell id="M3oFYjEH38Rrcv15kbG6-17" value="ISARIC IDs&lt;br&gt;NHSE extracts" style="text;html=1;strokeColor=none;fillColor=none;align=center;verticalAlign=middle;whiteSpace=wrap;rounded=0;" vertex="1" parent="1">
          <mxGeometry x="290" y="305" width="90" height="30" as="geometry" />
        </mxCell>
        <mxCell id="M3oFYjEH38Rrcv15kbG6-18" value="" style="endArrow=classic;html=1;rounded=0;exitX=0.992;exitY=0.446;exitDx=0;exitDy=0;exitPerimeter=0;entryX=0;entryY=0.032;entryDx=0;entryDy=0;entryPerimeter=0;" edge="1" parent="1" source="-7jV0sOdFc6A--xh77ND-6" target="-7jV0sOdFc6A--xh77ND-5">
          <mxGeometry width="50" height="50" relative="1" as="geometry">
            <mxPoint x="570" y="360" as="sourcePoint" />
            <mxPoint x="620" y="310" as="targetPoint" />
          </mxGeometry>
        </mxCell>
        <mxCell id="M3oFYjEH38Rrcv15kbG6-19" value="" style="rounded=1;whiteSpace=wrap;html=1;strokeColor=#0000FF;" vertex="1" parent="1">
          <mxGeometry x="625" y="100" width="50" height="30" as="geometry" />
        </mxCell>
        <mxCell id="M3oFYjEH38Rrcv15kbG6-21" value="" style="rounded=1;whiteSpace=wrap;html=1;strokeColor=#006600;" vertex="1" parent="1">
          <mxGeometry x="625" y="150" width="50" height="30" as="geometry" />
        </mxCell>
      </root>
    </mxGraphModel>
  </diagram>
</mxfile>
